<?xml version="1.0" standalone="no"?>
<!DOCTYPE svg PUBLIC "-//W3C//DTD SVG 20010904//EN"
 "http://www.w3.org/TR/2001/REC-SVG-20010904/DTD/svg10.dtd">
<svg version="1.0" xmlns="http://www.w3.org/2000/svg"
 width="96.000000pt" height="96.000000pt" viewBox="0 0 96.000000 96.000000"
 preserveAspectRatio="xMidYMid meet">
<metadata>
Created by potrace 1.14, written by Peter Selinger 2001-2017
</metadata>
<g transform="translate(0.000000,96.000000) scale(0.100000,-0.100000)"
fill="#000000" stroke="none">
<path d="M471 877 c-7 -10 -20 -17 -27 -17 -17 0 -18 -16 -3 -26 6 -3 9 -17 6
-30 -3 -20 -1 -22 14 -14 10 6 25 7 33 4 11 -4 16 0 16 12 0 9 7 26 17 36 15
17 15 18 -10 18 -16 0 -27 6 -29 17 -3 15 -4 15 -17 0z"/>
<path d="M320 835 c0 -9 -9 -15 -22 -15 -19 0 -20 -2 -6 -17 9 -10 13 -24 10
-32 -3 -10 0 -12 12 -8 10 4 26 2 37 -4 18 -9 19 -7 13 15 -4 17 -1 27 13 35
17 10 16 10 -5 11 -12 0 -25 7 -28 15 -4 8 -10 15 -15 15 -5 0 -9 -7 -9 -15z"/>
<path d="M616 835 c-3 -8 -12 -15 -20 -15 -12 0 -12 -5 -3 -30 7 -20 17 -28
26 -25 7 3 20 0 28 -7 12 -10 14 -9 11 8 -1 12 3 28 11 37 12 15 11 17 -8 17
-12 0 -21 6 -21 15 0 8 -4 15 -9 15 -5 0 -11 -7 -15 -15z"/>
<path d="M186 782 c-5 -13 -15 -22 -28 -22 -18 0 -19 -2 -7 -17 8 -9 12 -25
11 -37 -3 -17 -2 -18 11 -7 12 9 21 10 35 2 18 -9 19 -8 14 11 -3 14 1 26 13
34 18 13 18 14 -3 14 -14 0 -26 8 -31 22 l-8 23 -7 -23z"/>
<path d="M757 776 c-4 -9 -14 -16 -23 -16 -13 0 -14 -3 -4 -15 7 -8 10 -24 7
-35 -4 -16 -2 -18 13 -10 10 6 26 7 34 4 11 -4 16 0 16 13 0 10 5 24 12 31 9
9 8 12 -6 12 -11 0 -24 7 -31 16 -11 16 -12 16 -18 0z"/>
<path d="M300 678 c-91 -32 -169 -63 -175 -69 -5 -6 -5 -13 3 -21 9 -9 12 -76
12 -240 l0 -228 340 0 340 0 0 228 c0 164 3 231 12 240 8 8 9 15 2 22 -11 11
-342 131 -358 129 -6 -1 -85 -28 -176 -61z"/>
</g>
</svg>
